<?xml version="1.0" encoding="UTF-8"?>
<svg id="Layer_1" data-name="Layer 1" xmlns="http://www.w3.org/2000/svg" viewBox="0 0 269.62 254.3">
  <defs>
    <style>
      .cls-1 {
        stroke:rgb(29, 6, 6);
        stroke-miterlimit: 50;
      }
    </style>
  </defs>
  <path class="cls-1" d="m65.87,72v126.88c0,16.65,13.5,30.14,30.14,30.14h77.59c16.65,0,30.14-13.49,30.14-30.14v-126.88H65.87Zm29.96,113.79c0,4.89-3.96,8.85-8.85,8.85s-8.85-3.96-8.85-8.85v-96c0-4.89,3.96-8.85,8.85-8.85,2.45,0,4.66.99,6.26,2.59s2.59,3.81,2.59,6.26v96Zm50.19,0c0,4.89-3.97,8.85-8.85,8.85s-8.86-3.96-8.86-8.85v-96c0-4.89,3.97-8.85,8.86-8.85,2.44,0,4.65.99,6.26,2.59,1.6,1.6,2.59,3.81,2.59,6.26v96Zm45.47,0c0,4.89-3.96,8.85-8.85,8.85s-8.85-3.96-8.85-8.85v-96c0-4.89,3.96-8.85,8.85-8.85,2.45,0,4.66.99,6.26,2.59,1.6,1.6,2.59,3.81,2.59,6.26v96Z"/>
  <path class="cls-1" d="m213.19,52.07v9.46H56.42v-9.46c0-6.34,5.14-11.47,11.47-11.47h31.85v-8.1c0-6.34,5.14-11.48,11.47-11.48h47.18c6.34,0,11.48,5.14,11.48,11.48v8.1h31.84c6.34,0,11.48,5.13,11.48,11.47Z"/>
</svg>